<svg xmlns="http://www.w3.org/2000/svg" viewBox="0 0 100 100" fill="#6D4C41">
  <path d="M80,30H70V20c0-5.5-4.5-10-10-10H40c-5.5,0-10,4.5-10,10V30H20c-5.5,0-10,4.5-10,10V70c0,11,9,20,20,20h40c11,0,20-9,20-20V40C90,34.5,85.5,30,80,30z M40,20h20v10H40V20z M70,80H30c-5.5,0-10-4.5-10-10V50h50v20C70,75.5,65.5,80,70,80z"/>
  <path d="M50 55c-2.8 0-5 2.2-5 5s2.2 5 5 5 5-2.2 5-5-2.2-5-5-5zm15 0c-2.8 0-5 2.2-5 5s2.2 5 5 5 5-2.2 5-5-2.2-5-5-5zm-30 0c-2.8 0-5 2.2-5 5s2.2 5 5 5 5-2.2 5-5-2.2-5-5-5z" fill="#FFFFFF"/>
  <path d="M85 15c-1.7 0-3 1.3-3 3s1.3 3 3 3 3-1.3 3-3-1.3-3-3-3zm-10 0c-1.7 0-3 1.3-3 3s1.3 3 3 3 3-1.3 3-3-1.3-3-3-3z" fill="#A1887F"/>
</svg>
